PathFileType	4	(X/Y/Z)	SUBJ59_3_walk_RCNL2025.trc
DataRate	CameraRate	NumFrames	NumMarkers	Units	OrigDataRate	OrigDataStartFrame	OrigNumFrames
100	100	11	25	mm	100	192	306
Frame#	Time	R_Shoulder			L_Shoulder			C7			J_Notch			R_Elbow			L_Elbow			R_Wrist			L_Wrist			R_Asis			L_Asis			Sacral			Thoracic			Sternum			R_Thigh_Lateral			R_Knee_Lateral			R_Shank_Lateral			R_Ankle_Lateral			R_Heel			R_Toe			L_Thigh_Lateral			L_Knee_Lateral			L_Shank_Lateral			L_Ankle_Lateral			L_Heel			L_Toe		
		X1	Y1	Z1	X2	Y2	Z2	X3	Y3	Z3	X4	Y4	Z4	X5	Y5	Z5	X6	Y6	Z6	X7	Y7	Z7	X8	Y8	Z8	X9	Y9	Z9	X10	Y10	Z10	X11	Y11	Z11	X12	Y12	Z12	X13	Y13	Z13	X14	Y14	Z14	X15	Y15	Z15	X16	Y16	Z16	X17	Y17	Z17	X18	Y18	Z18	X19	Y19	Z19	X20	Y20	Z20	X21	Y21	Z21	X22	Y22	Z22	X23	Y23	Z23	X24	Y24	Z24	X25	Y25	Z25
192	1.91000000	927.385559	1436.393555	107.703499	898.398499	1473.932739	-292.439911	824.088074	1539.631104	-82.458908	984.604858	1441.657349	-97.267029	936.518250	1128.285156	213.097000	814.392456	1140.979614	-392.174469	1085.040222	893.005890	188.826859	815.785370	873.134827	-387.202789	973.826660	979.393982	23.526819	991.348633	977.339966	-200.957855	766.197754	1002.693115	-109.124222	755.817383	1322.496948	-104.675133	1039.173706	1249.096558	-105.696220	830.433044	593.403015	90.935745	796.972290	503.020416	32.323521	747.655640	306.385834	99.143616	671.013733	72.417816	-21.552694	632.740784	66.584610	-68.230339	831.237244	38.895988	-51.398014	1002.346619	593.507507	-297.650970	1051.476440	499.799042	-240.888245	1085.086670	309.485138	-302.868988	1145.907715	84.721817	-228.337814	1116.547241	51.667503	-168.958893	1308.889282	85.494118	-200.138199
193	1.92000000	938.785461	1434.708008	106.129501	909.537659	1471.200562	-293.983185	835.419617	1537.719971	-84.120018	995.812439	1439.306396	-98.655800	950.335999	1127.652954	212.678482	822.899231	1138.611938	-392.613190	1100.726440	893.699768	187.389450	821.729004	870.663208	-387.727081	983.894409	977.663147	23.620670	1002.717651	974.787842	-200.859863	777.152100	1000.748962	-110.614418	766.684204	1320.781860	-106.005821	1049.988892	1246.679077	-106.121140	837.563782	592.636230	91.022018	803.103210	502.559692	32.355473	751.051514	306.593384	99.221161	671.431213	73.448837	-21.421505	633.107056	67.960709	-68.097122	831.324463	38.852737	-51.237709	1010.602600	589.235596	-296.996613	1062.801880	497.499115	-239.609421	1103.935059	309.002960	-302.598145	1171.039307	85.412727	-228.634659	1141.977295	51.494133	-169.569946	1334.042969	90.715485	-198.121674
194	1.93000000	950.257690	1433.047241	104.468201	920.817810	1468.495972	-295.598358	846.825012	1535.844482	-85.881844	1007.108398	1437.005005	-100.108261	964.048462	1127.048584	212.142868	831.724304	1136.262817	-393.178497	1115.988586	894.219086	185.933815	828.178345	868.242188	-388.248993	994.058289	975.999634	23.712933	1014.122620	972.306580	-200.784882	788.174377	998.859802	-112.132729	777.641907	1319.105347	-107.445808	1060.894897	1244.309326	-106.587509	844.952087	591.920898	91.139107	809.584473	502.106812	32.428471	754.774353	306.863922	99.352402	671.955994	74.653786	-21.178688	633.540161	69.561935	-67.829681	831.434692	38.829113	-51.093510	1019.484680	585.427917	-296.372955	1074.401001	495.488770	-238.529495	1121.591187	308.638733	-302.228424	1193.442749	86.057358	-228.573288	1164.683472	51.468910	-169.707855	1356.437134	95.027847	-196.181335
195	1.94000000	961.802917	1431.458496	102.724945	932.233093	1465.853027	-297.287659	858.304749	1534.029785	-87.746208	1018.497681	1434.790283	-101.627922	977.619995	1126.495605	211.491547	840.898376	1133.950317	-393.866302	1130.811523	894.587006	184.476730	835.155731	865.896545	-388.794662	1004.337952	974.419250	23.807283	1025.576172	969.932861	-200.727310	799.271973	997.047974	-113.649521	788.706787	1317.489990	-108.983673	1071.904663	1242.022583	-107.107376	852.538086	591.288879	91.299713	816.376160	501.689423	32.551971	758.782593	307.225250	99.542122	672.589844	76.052689	-20.829933	634.051880	71.408661	-67.445396	831.568726	38.821892	-50.975151	1029.404541	582.308655	-295.790924	1086.347290	493.782135	-237.659012	1137.905029	308.191406	-301.744720	1212.930420	86.398216	-228.131180	1184.469116	51.333366	-169.364136	1375.945801	98.020378	-194.353424
196	1.95000000	973.422119	1429.987183	100.906296	943.775452	1463.302490	-299.051758	869.861938	1532.302124	-89.713112	1029.985840	1432.695557	-103.219765	991.017822	1126.015869	210.726959	850.446533	1131.693726	-394.668427	1145.180054	894.827057	183.033531	842.684662	863.646454	-389.391479	1014.752380	972.933472	23.901861	1037.099121	967.702698	-200.686401	810.457275	995.328735	-115.135719	799.897156	1315.954468	-110.605446	1083.031250	1239.853149	-107.699509	860.277771	590.768005	91.510178	823.442261	501.331696	32.732510	763.043030	307.706299	99.797440	673.331726	77.661835	-20.377218	634.653748	73.518150	-66.954285	831.726013	38.825344	-50.887737	1040.698242	580.046814	-295.269592	1098.674438	492.373932	-236.980789	1152.772339	307.480377	-301.133789	1229.427734	86.242348	-227.326202	1201.229980	50.903606	-168.588852	1392.531494	99.359688	-192.630890
197	1.96000000	985.117676	1428.675049	99.018875	955.436340	1460.870728	-300.891083	881.503052	1530.688354	-91.782455	1041.580566	1430.749023	-104.891121	1004.213867	1125.628784	209.851822	860.386902	1129.510742	-395.575104	1159.077454	894.960266	181.616997	850.786041	861.504700	-390.060318	1025.318848	971.548950	23.987444	1048.720093	965.651611	-200.667694	821.749451	993.711853	-116.565941	811.229797	1314.516357	-112.295609	1094.288086	1237.833130	-108.386772	868.145081	590.378662	91.766106	830.756165	501.053040	32.970406	767.530396	308.334076	100.124123	674.180542	79.495895	-19.819420	635.360596	75.906464	-66.361076	831.905945	38.832336	-50.829670	1053.536987	578.722900	-294.827515	1111.368896	491.241058	-236.459610	1166.159424	306.383789	-300.393097	1243.003418	85.490387	-226.216385	1214.982300	50.092442	-167.482925	1406.267456	98.846420	-190.972519
198	1.97000000	996.894531	1427.558472	97.067780	967.207886	1458.579468	-302.806976	893.236572	1529.213745	-93.954231	1053.291382	1428.976196	-106.650902	1017.187256	1125.352783	208.869370	870.729858	1127.413940	-396.578491	1172.485413	895.003967	180.238792	859.474884	859.476501	-390.812912	1036.052368	970.269226	24.047237	1060.473267	963.815430	-200.681122	833.171692	992.208008	-117.921410	822.717407	1313.194458	-114.038696	1105.690430	1235.993164	-109.190750	876.135010	590.132507	92.051895	838.306763	500.866272	33.258572	772.220093	309.128357	100.522629	675.139465	81.568962	-19.155432	636.193481	78.590782	-65.669838	832.109741	38.835930	-50.793549	1067.863159	578.308655	-294.474640	1124.362793	490.345337	-236.055725	1178.129517	304.868774	-299.538666	1253.883667	84.149467	-224.890823	1225.876953	48.919094	-166.178528	1417.353882	96.452286	-189.325699
199	1.98000000	1008.761169	1426.668091	95.056305	979.083496	1456.447388	-304.802551	905.071106	1527.902100	-96.228455	1065.127930	1427.402222	-108.507286	1029.925903	1125.206177	207.784286	881.478333	1125.412598	-397.672913	1185.386902	894.972687	178.911095	868.759766	857.563110	-391.653732	1046.968628	969.098328	24.060822	1072.391235	962.229858	-200.737000	844.746277	990.836853	-119.191780	834.370300	1312.011597	-115.820793	1117.255249	1234.363403	-110.126106	884.269592	590.032654	92.345192	846.102966	500.775818	33.582886	777.091858	310.100555	100.985924	676.219177	83.894493	-18.388659	637.179688	81.592178	-64.888039	832.343079	38.831463	-50.767906	1083.382568	578.670471	-294.208527	1137.529053	489.637421	-235.736511	1188.849609	303.002563	-298.603119	1262.443726	82.329117	-223.456802	1234.196777	47.505463	-164.820847	1426.118042	92.326004	-187.651321
200	1.99000000	1020.727173	1426.030151	92.986916	991.057983	1454.491699	-306.880981	917.013367	1526.776123	-98.605507	1077.097900	1426.054077	-110.465103	1042.424194	1125.206055	206.602814	892.628174	1123.515503	-398.853760	1197.767822	894.879089	177.644905	878.644775	855.765869	-392.582153	1058.084961	968.044800	24.007570	1084.497314	960.931091	-200.842148	856.487915	989.632385	-120.376724	846.197449	1310.994629	-117.630486	1129.001465	1232.976074	-111.197296	892.600098	590.072632	92.622414	854.176270	500.778320	33.924332	782.143799	311.257599	101.499741	677.440125	86.486099	-17.531086	638.353088	84.938240	-64.027840	832.617310	38.818062	-50.738968	1099.616455	579.599548	-294.015747	1150.687744	489.064606	-235.482819	1198.575317	300.938812	-297.626129	1269.179443	80.221031	-222.028458	1240.334229	46.056347	-163.556396	1432.995483	86.769234	-185.940598
201	2.00000000	1032.800293	1425.668213	90.862694	1003.128540	1452.729614	-309.042328	929.067749	1525.862305	-101.085281	1089.206177	1424.961548	-112.524010	1054.678589	1125.369751	205.331802	904.170166	1121.734985	-400.115662	1209.613770	894.733704	176.447784	889.130646	854.089783	-393.592850	1069.419434	967.125366	23.866955	1096.798706	959.956787	-200.999039	868.398926	988.643005	-121.486595	858.204956	1310.175293	-119.458633	1140.948364	1231.866211	-112.397987	901.203918	590.234741	92.862740	862.582397	500.864075	34.263012	787.402222	312.605743	102.045906	678.836121	89.360664	-16.603531	639.756775	88.665527	-63.104916	832.948730	38.798111	-50.694000	1115.989624	580.857239	-293.877838	1163.629639	488.584229	-235.289978	1207.625366	298.886993	-296.648590	1274.653809	78.063942	-220.718460	1244.751587	44.820759	-162.520432	1438.486328	80.193794	-184.221558
202	2.01000000	1044.984863	1425.605469	88.688805	1015.295959	1451.180542	-311.280182	941.238770	1525.194092	-103.664352	1101.453857	1424.157227	-114.677109	1066.687256	1125.715820	203.976883	916.092896	1120.090088	-401.450897	1220.907654	894.545990	175.324104	900.216095	852.546143	-394.675873	1080.985474	966.365784	23.619431	1109.283203	959.345093	-201.209579	880.467957	987.926697	-122.539436	870.393127	1309.591309	-121.296112	1153.111572	1231.070801	-113.712242	910.180237	590.494202	93.052177	871.402710	501.018402	34.583931	792.924622	314.154663	102.607964	680.459473	92.542007	-15.631687	641.448242	92.821823	-62.136471	833.353333	38.774078	-50.626747	1131.924072	582.225403	-293.781616	1176.161499	488.181854	-235.166138	1216.356445	297.078796	-295.715485	1279.413330	76.093773	-219.627487	1247.923828	44.029778	-161.816422	1443.084229	73.074272	-182.554855
